<?xml version="1.0" standalone="no"?><!DOCTYPE svg PUBLIC "-//W3C//DTD SVG 1.1//EN" "http://www.w3.org/Graphics/SVG/1.1/DTD/svg11.dtd"><svg t="1786606067380" class="icon" viewBox="0 0 1024 1024" version="1.1" xmlns="http://www.w3.org/2000/svg" p-id="6237" xmlns:xlink="http://www.w3.org/1999/xlink" width="200" height="200"><path d="M569.7 518.7H137.6c-20.3 0-39.1 8.3-52.5 21.7s-21.7 32.2-21.7 52.5v240.6c0 20.3 8.5 39.1 21.7 52.5 13.4 13.4 32.2 21.9 52.5 21.7h432c20.3 0 39.1-8.3 52.5-21.7s21.7-32.2 21.7-52.5V592.9c0-20.3-8.5-39.1-21.7-52.5-13.2-13.4-32-21.7-52.4-21.7zM924.8 527.4c-12.5-7.6-26.8-11.4-41.1-11.4-13 0-25.9 3.1-37.8 9.4l-158.3 84.3V819l158.3 84.3c11.8 6.3 24.8 9.4 37.8 9.4 14.1 0 28.6-3.8 41.1-11.4 23.9-14.5 38.7-40.5 38.7-68.6v-237c0.2-27.8-14.6-53.8-38.7-68.3zM599.4 494.2c-104.5 0-189.5-85-189.5-189.5s85-189.5 189.5-189.5 189.5 85 189.5 189.5-85 189.5-189.5 189.5z m0-310.3c-66.6 0-120.8 54.2-120.8 120.8s54.2 120.8 120.8 120.8 120.8-54.2 120.8-120.8S666 183.9 599.4 183.9zM218 482.6c-85.3 0-154.6-69.4-154.6-154.6S132.7 173.4 218 173.4 372.6 242.7 372.6 328 303.2 482.6 218 482.6z m0-240.6c-47.4 0-85.9 38.6-85.9 85.9s38.6 85.9 85.9 85.9 85.9-38.6 85.9-85.9S265.3 242 218 242z" fill="" p-id="6238"></path></svg>